# xmcd
#
# Track frame offsets:
#	150
#	17821
#	31246
#	49537
#	59272
#	80581
#	101341
#	119125
#	132061
#	152983
#
# Disc length: 2371 seconds
#
# Revision: 0
# Processed by: cddbd v1.5.2PL0 Copyright (c) Steve Scherf et al.
# Submitted via: dBpowerAMP V4.0
#
DISCID=7d09410a
DTITLE=Chevy Downs - All The Landlords Children
DYEAR=2005
DGENRE=Alt. Country
TTITLE0=Small Details
TTITLE1=I'm Not Putting You On
TTITLE2=Country Time
TTITLE3=Dance it off
TTITLE4=I'll Be Home, Momma
TTITLE5=In My Dreams
TTITLE6=One Hundred Proof
TTITLE7=Jesus Heal My Hangover
TTITLE8=Whiskey, Cards and Women
TTITLE9=We Shall All be Reunited
EXTD=
EXTT0=
EXTT1=
EXTT2=
EXTT3=
EXTT4=
EXTT5=
EXTT6=
EXTT7=
EXTT8=
EXTT9=
PLAYORDER=
